<svg height="300px" stroke-linecap="round" version="1.1" viewBox="0 0 10000 12000" width="200px" xml:space="preserve" xmlns="http://www.w3.org/2000/svg"><defs><linearGradient gradientTransform="rotate(90)" id="gradient"><stop stop-color="#8847FF"></stop><stop offset="100%" stop-color="#8847FF"></stop></linearGradient></defs><path d="M5605 452.67c0,0 -79.08,2720.27 189.79,4143.67 268.86,1423.4 1312.67,3843.17 774.95,4365.08 -185.1,179.66 -430.87,418.21 -798.04,539.7 -786.17,260.15 -1420.63,158.7 -2175.29,425.05 -537.73,189.79 -1154.54,332.13 -1391.78,347.94 -237.23,15.81 2146.67,504.18 2981.24,711.72 834.58,207.55 2287.71,-131.1 2380.26,-94.89 92.54,36.21 -173.97,94.89 -47.45,355.85 126.52,260.96 559.61,107.53 197.68,257 -96.53,39.87 -264.01,49.37 -526.64,6.6 -213.58,-34.77 -462.96,-92.28 -870.8,-186.06 -1395.64,-320.92 -4143.97,-1005.7 -4114.29,-1050.22" fill-opacity="0" id="path" stroke="url(#gradient)" stroke-dasharray="100000" stroke-dashoffset="1000" stroke-miterlimit="22.9526" stroke-width="200px"><animate attributeName="stroke-dashoffset" dur="5s" from="100000" repeatCount="indefinite" to="0" href="#path"></animate></path></svg>