<svg width="47" height="131" viewBox="0 0 47 131" fill="none" xmlns="http://www.w3.org/2000/svg"><g clip-path="url(#clip0_8583_99078)"><mask id="mask0_8583_99078" style="mask-type:luminance" maskUnits="userSpaceOnUse" x="0" y="0" width="47" height="131"><path d="M47 0.580078H0V130.58H47V0.580078Z" fill="white"/></mask><g mask="url(#mask0_8583_99078)"><path d="M21.8006 68.6799C22.3106 68.8199 22.6406 69.3999 22.5506 69.9999C22.5206 70.1999 22.4806 70.4299 22.4306 70.6999C22.4006 70.8799 22.3606 71.0699 22.3106 71.2799C22.2606 71.4899 22.2206 71.7099 22.1606 71.9399C22.1206 72.1399 22.0606 72.3499 22.0106 72.5699L21.8906 73.0599C21.7606 73.5899 21.6206 74.1499 21.4706 74.7299C21.2806 75.4499 21.1206 75.7099 20.9006 76.4499C20.7706 76.8999 20.6406 77.3399 20.5006 77.7699C20.3306 78.3199 20.1406 78.8699 19.9406 79.4199C19.7006 80.1099 19.4206 80.7899 19.1106 81.4599C18.6606 82.3899 18.4006 83.9599 18.2506 84.9699C18.1906 85.3799 18.1406 85.7799 18.1106 86.1699C18.0606 86.7599 18.0306 87.3299 18.0006 87.8599C17.9806 88.2099 17.9606 88.5399 17.9406 88.8399C17.8906 89.4499 17.8206 89.9399 17.6706 90.2699C17.5606 90.5199 17.4606 90.6799 17.3806 90.8299C17.3106 90.9399 17.2506 91.0599 17.2006 91.1899C17.1406 91.3499 17.1106 91.5099 17.0906 91.6799C17.0806 91.7599 17.0706 91.8599 17.0706 91.9599C17.0706 92.0599 17.0706 92.1799 17.0706 92.3099C17.0706 93.0799 17.1706 94.3399 17.3806 96.5799C17.9606 102.54 15.6406 102.87 14.4906 109.83C14.2706 110.93 14.0906 112.03 13.9506 113.13C13.8406 113.95 13.7606 114.76 13.6906 115.58C13.6406 116.11 13.6106 116.63 13.5806 117.13C13.5406 117.83 13.5206 118.53 13.5206 119.24C13.5206 119.46 13.5206 119.66 13.5206 119.86C13.5306 120.46 13.5706 120.99 13.6206 121.42C13.6906 122 13.7106 122.5 13.6806 122.92C13.6606 123.24 13.6106 123.52 13.5506 123.76C13.4406 124.16 13.2606 124.46 13.0506 124.68C12.8906 124.85 12.6806 124.98 12.4606 125.06C11.7006 125.35 10.7206 125.64 9.71063 126.82C9.56063 127 9.41063 127.19 9.27063 127.38C9.03063 127.73 8.76062 128.05 8.45062 128.35C8.22062 128.56 7.98063 128.75 7.71063 128.91C7.24063 129.2 6.81063 129.36 6.37063 129.7C6.27063 129.77 6.18063 129.83 6.09063 129.89L6.03063 129.93C5.94063 129.99 5.86063 130.05 5.78063 130.09L5.75063 130.11C5.67063 130.16 5.58063 130.21 5.50063 130.26C5.44063 130.3 5.37063 130.33 5.30063 130.37C5.29063 130.37 5.28063 130.37 5.27063 130.38C5.22063 130.4 5.16063 130.43 5.11063 130.45C5.05063 130.48 4.98063 130.5 4.92063 130.52H4.89062C4.89062 130.52 4.81063 130.55 4.76063 130.56C4.76063 130.56 4.75062 130.56 4.74062 130.56C4.69062 130.56 4.65063 130.56 4.61063 130.56H4.58063C4.58063 130.56 4.53063 130.56 4.51063 130.56C4.50063 130.56 4.48062 130.56 4.47062 130.56C4.45062 130.56 4.42063 130.56 4.40063 130.55C4.40063 130.55 4.38063 130.55 4.37063 130.55C4.34063 130.55 4.31063 130.53 4.28063 130.52H4.26063C4.26063 130.52 4.21063 130.49 4.19063 130.48L4.16062 130.46C4.16062 130.46 4.12063 130.44 4.10063 130.43L4.07063 130.41C4.07063 130.41 4.03063 130.38 4.01063 130.37L3.98063 130.35C3.98063 130.35 3.92063 130.31 3.90063 130.29C3.90063 130.29 3.90062 130.29 3.89062 130.29C3.86063 130.27 3.83062 130.24 3.80062 130.21L3.76063 130.18C3.76063 130.18 3.72063 130.15 3.69063 130.13C3.66063 130.11 3.63062 130.08 3.60062 130.05L3.55062 130.01C3.55062 130.01 3.49063 129.96 3.46063 129.94C3.45063 129.94 3.44063 129.93 3.43063 129.92C3.39063 129.89 3.35062 129.86 3.30062 129.82C3.30062 129.82 3.28062 129.81 3.28062 129.8C3.25063 129.77 3.21063 129.74 3.17063 129.72C3.15063 129.71 3.14062 129.7 3.12062 129.69C3.09062 129.67 3.06062 129.65 3.02062 129.62L2.96063 129.58C2.96063 129.58 2.89062 129.53 2.85062 129.51C2.83062 129.5 2.82062 129.49 2.80062 129.48C2.74062 129.44 2.68062 129.41 2.62062 129.37C2.18062 129.12 1.95062 128.87 1.90062 128.61C1.90062 128.57 1.89062 128.52 1.89062 128.48C1.89062 128.35 1.93063 128.2 2.01063 128.05C2.09063 127.9 2.21062 127.74 2.36062 127.58C2.51062 127.41 2.70063 127.24 2.92063 127.05C3.14063 126.86 3.35062 126.65 3.58062 126.42C3.80062 126.19 4.03063 125.94 4.27063 125.67C4.35063 125.58 4.43063 125.49 4.51063 125.39C4.76063 125.11 5.02063 124.81 5.30063 124.49C5.93063 123.78 6.58063 123.08 7.26063 122.41C8.91063 120.8 9.41063 119.18 9.38063 117.92C9.38063 117.65 9.34063 117.38 9.29063 117.11C9.23063 116.63 9.17063 116.15 9.12063 115.68C9.00063 114.58 8.91063 113.47 8.84063 112.36C8.76063 111.17 8.70063 109.98 8.67063 108.8C8.51063 103.93 8.64063 99.0099 9.01063 95.8999C9.05063 95.3199 9.10063 94.7999 9.16062 94.3399C9.24062 93.7399 9.34063 93.1299 9.47063 92.5399C9.55063 92.1999 9.62063 91.8899 9.70062 91.5999C9.74062 91.4599 9.77063 91.3199 9.81063 91.1899C9.83063 91.1199 9.84062 91.0599 9.86062 90.9899C9.94063 90.6599 10.0206 90.3599 10.0906 90.0399C10.1006 89.9799 10.1106 89.9199 10.1206 89.8499C10.2106 89.2899 10.2506 88.6999 10.1706 87.9499C10.1406 87.8099 10.1106 87.6699 10.0906 87.5299C10.0306 87.1199 10.0106 86.6999 10.0306 86.2899C10.0406 86.0199 10.0706 85.7399 10.1006 85.4699C10.1506 85.0599 10.2206 84.6599 10.2906 84.2499C10.3406 83.9799 10.3806 83.7099 10.4106 83.4299C10.5006 82.7399 10.5506 82.0499 10.4606 81.3199C10.0106 75.6699 10.2606 68.9899 10.9306 62.6299C10.9606 62.3499 11.2706 62.2599 11.4206 62.4899C14.0406 66.6099 19.3306 67.9599 21.8306 68.6899L21.8006 68.6799ZM35.6206 62.4799C35.7606 62.2499 36.0806 62.3399 36.1106 62.6199C36.7806 68.9899 37.0306 75.6699 36.5806 81.3099C36.4906 82.0299 36.5306 82.7299 36.6306 83.4199C36.6706 83.6999 36.7106 83.9699 36.7606 84.2399C36.8306 84.6499 36.9006 85.0499 36.9506 85.4599C36.9806 85.7299 37.0106 85.9999 37.0206 86.2799C37.0306 86.5599 37.0306 86.8299 37.0106 87.1099C36.9906 87.3899 36.9406 87.6699 36.8806 87.9499C36.8006 88.6499 36.8206 89.3499 36.9606 90.0399C37.0206 90.3499 37.1006 90.6599 37.1906 90.9899C37.2106 91.0599 37.2206 91.1199 37.2406 91.1899C37.2806 91.3199 37.3106 91.4599 37.3506 91.5999C37.4306 91.8899 37.5006 92.1999 37.5806 92.5399C37.6406 92.8199 37.6906 93.0899 37.7406 93.3699C37.7906 93.6699 37.8406 93.9899 37.8906 94.3399C37.9506 94.8099 38.0006 95.3299 38.0406 95.8999C38.4006 99.0099 38.5406 103.93 38.3806 108.8C38.3406 109.99 38.2806 111.18 38.2106 112.36C38.1406 113.47 38.0406 114.57 37.9306 115.68C37.8806 116.16 37.8206 116.64 37.7606 117.11C37.7106 117.36 37.6706 117.63 37.6606 117.92C37.6306 119.18 38.1306 120.8 39.7806 122.41C40.5406 123.16 41.1806 123.85 41.7406 124.49C42.0206 124.81 42.2806 125.11 42.5306 125.39C42.6106 125.48 42.6906 125.58 42.7706 125.67C43.0106 125.94 43.2406 126.19 43.4606 126.42C43.6806 126.65 43.9006 126.86 44.1206 127.05C44.3406 127.24 44.5206 127.41 44.6806 127.58C44.8306 127.74 44.9506 127.9 45.0306 128.05C45.1106 128.2 45.1506 128.34 45.1506 128.48C45.1506 128.52 45.1506 128.57 45.1406 128.61C45.0806 128.88 44.8506 129.13 44.4206 129.37C44.3606 129.41 44.3006 129.44 44.2406 129.48C44.2206 129.49 44.2106 129.5 44.1906 129.51C44.1506 129.53 44.1106 129.56 44.0806 129.58L44.0206 129.62C44.0206 129.62 43.9506 129.67 43.9206 129.69L43.8706 129.72C43.8706 129.72 43.7906 129.77 43.7606 129.8C43.7606 129.8 43.7406 129.81 43.7406 129.82C43.7006 129.85 43.6606 129.89 43.6106 129.92L43.5806 129.94C43.5806 129.94 43.5206 129.99 43.4906 130.01L43.4406 130.05C43.4406 130.05 43.3806 130.1 43.3506 130.13C43.3306 130.15 43.3106 130.17 43.2806 130.18L43.2406 130.21C43.2406 130.21 43.1706 130.26 43.1506 130.29C43.1506 130.29 43.1506 130.29 43.1406 130.29L43.0606 130.35L43.0306 130.37C43.0306 130.37 42.9906 130.4 42.9706 130.41L42.9406 130.43C42.9406 130.43 42.9006 130.45 42.8806 130.46L42.8506 130.48C42.8506 130.48 42.8006 130.5 42.7806 130.51H42.7606C42.7606 130.51 42.7006 130.54 42.6706 130.55C42.6706 130.55 42.6506 130.55 42.6406 130.55C42.6206 130.55 42.5906 130.56 42.5706 130.56C42.5606 130.56 42.5506 130.56 42.5306 130.56C42.5106 130.56 42.4906 130.56 42.4606 130.56H42.4306C42.4306 130.56 42.3506 130.56 42.3006 130.56H42.2806C42.2406 130.56 42.1906 130.54 42.1506 130.53H42.1206C42.0506 130.5 41.9906 130.48 41.9306 130.45C41.8806 130.43 41.8306 130.4 41.7706 130.38C41.7606 130.38 41.7506 130.38 41.7406 130.37C41.6706 130.34 41.6106 130.3 41.5406 130.26L41.4906 130.23C41.4306 130.19 41.3606 130.15 41.2906 130.11L41.2606 130.09C41.1806 130.04 41.1006 129.98 41.0106 129.93L40.9506 129.89C40.8606 129.83 40.7706 129.77 40.6706 129.7C40.2406 129.37 39.8006 129.2 39.3306 128.91C39.2106 128.83 39.0906 128.75 38.9706 128.66C38.8406 128.56 38.7106 128.45 38.5906 128.34C38.2806 128.05 38.0106 127.72 37.7706 127.37C37.6306 127.18 37.4906 126.99 37.3306 126.81C36.3206 125.63 35.3406 125.34 34.5806 125.05C34.3606 124.97 34.1606 124.84 33.9906 124.67C33.7806 124.45 33.6006 124.15 33.4906 123.75C33.4206 123.48 33.3706 123.2 33.3606 122.91C33.3306 122.49 33.3606 121.99 33.4206 121.41C33.4706 120.98 33.5106 120.45 33.5206 119.85C33.5206 119.65 33.5206 119.44 33.5206 119.23C33.5206 118.58 33.5006 117.88 33.4606 117.12C33.4306 116.6 33.4006 116.08 33.3506 115.57C33.2806 114.75 33.1906 113.93 33.0906 113.12C32.9806 112.29 32.8506 111.46 32.7006 110.63C32.6506 110.36 32.6006 110.08 32.5406 109.81C31.3806 102.85 29.0706 102.52 29.6506 96.5599C29.8706 94.3299 29.9606 93.0699 29.9606 92.2899C29.9606 92.1599 29.9606 92.0499 29.9606 91.9399C29.9606 91.8499 29.9506 91.7499 29.9406 91.6599C29.9406 91.5799 29.9206 91.5099 29.9106 91.4399C29.8906 91.3499 29.8706 91.2599 29.8306 91.1799C29.7806 91.0599 29.7206 90.9399 29.6506 90.8199C29.5706 90.6799 29.4706 90.5099 29.3606 90.2599C29.2106 89.9299 29.1406 89.4299 29.0906 88.8299C29.0606 88.4999 29.0406 88.1799 29.0306 87.8499C29.0006 87.2899 28.9606 86.7199 28.9206 86.1599C28.8806 85.7599 28.8406 85.3599 28.7806 84.9599C28.6306 83.9399 28.3706 82.3799 27.9206 81.4499C27.6106 80.7799 27.3306 80.0999 27.0906 79.4099C26.8906 78.8599 26.7106 78.3099 26.5306 77.7599C26.3906 77.3199 26.2606 76.8799 26.1306 76.4399C25.9106 75.6999 25.7506 75.4499 25.5606 74.7199C25.4106 74.1699 25.2706 73.6099 25.1406 73.0499L25.0206 72.5599C24.9706 72.3399 24.9206 72.1299 24.8706 71.9299C24.8206 71.6999 24.7706 71.4799 24.7206 71.2699C24.6306 70.8499 24.5506 70.4299 24.4806 70.0099C24.3906 69.3999 24.7206 68.8199 25.2306 68.6799C27.7306 67.9499 33.0206 66.5999 35.6406 62.4799H35.6206Z" fill="#2D323E"/><path d="M12.7705 51.8398C12.6605 52.2398 12.5405 52.6398 12.4305 53.0598C12.4105 53.1298 12.3905 53.1898 12.3705 53.2598C12.0305 54.4698 11.6905 56.9298 11.3905 58.2998C11.3105 58.6698 11.2305 59.0498 11.1605 59.4298C11.0305 60.0998 11.2605 60.7898 11.8005 61.2898C14.9505 64.8598 20.0105 67.2998 23.5205 67.2998C27.0305 67.2998 32.0805 64.8598 35.2405 61.2898C35.7705 60.7798 36.0005 60.0998 35.8805 59.4298C35.8105 59.0498 35.7305 58.6698 35.6505 58.2998C35.3605 56.9298 35.0105 54.4698 34.6705 53.2698L34.6205 53.0698C34.5205 52.7198 34.4305 52.3798 34.3305 52.0398C31.3105 53.0298 27.7105 53.6098 23.8305 53.6098C19.7105 53.6098 15.9005 52.9598 12.7705 51.8498V51.8398Z" fill="#2D323E"/></g><path d="M29.8519 9.31771H17.5519C17.5719 9.45771 17.6019 9.19979 17.6319 9.31979C17.6519 9.37979 17.6619 9.43979 17.6819 9.49979C17.6119 9.47979 17.5519 9.45979 17.4819 9.44979H17.4319C17.4319 9.44979 17.3419 9.42979 17.2919 9.42979C17.2819 9.42979 17.2719 9.42979 17.2619 9.42979C17.1419 9.42979 17.0219 9.45979 16.9219 9.51979C16.9219 9.51979 16.9219 9.51979 16.9119 9.52979C16.8719 9.55979 16.8419 9.58979 16.8119 9.61979C16.8119 9.61979 16.8019 9.62979 16.7919 9.63979C16.7619 9.67979 16.7419 9.71979 16.7219 9.76979C16.7219 9.77979 16.7219 9.78979 16.7119 9.79979C16.6919 9.84979 16.6819 9.90979 16.6719 9.95979C16.6719 10.0498 16.6719 10.1198 16.6719 10.1898C16.6719 10.2598 16.6919 10.3298 16.7019 10.3998C16.7019 10.4098 16.7019 10.4298 16.7119 10.4398C16.7319 10.5198 16.7519 10.5898 16.7819 10.6798C16.8019 10.7298 16.8119 10.7898 16.8319 10.8398C16.8319 10.8398 16.8319 10.8398 16.8319 10.8498C16.8419 10.9098 16.8619 10.9698 16.8719 11.0298V11.0498C16.8919 11.1298 16.9019 11.1998 16.9219 11.2798C16.9319 11.3498 16.9519 11.4098 16.9619 11.4898C16.9719 11.5698 16.9919 11.6398 17.0019 11.7198V11.7498C17.0219 11.8198 17.0419 11.8998 17.0519 11.9698C17.0519 11.9698 17.0519 11.9898 17.0519 11.9998C17.0719 12.0798 17.0919 12.1498 17.1119 12.2298C17.1119 12.2298 17.1119 12.2398 17.1119 12.2498C17.1519 12.4098 17.2019 12.5598 17.2619 12.7198C17.2919 12.7898 17.3219 12.8598 17.3519 12.9298V12.9498C17.3919 13.0098 17.4219 13.0698 17.4619 13.1298V13.1498C17.5119 13.1998 17.5419 13.2598 17.5919 13.2998L17.6119 13.3198C17.6119 13.3198 17.6919 13.4098 17.7419 13.4498L17.7619 13.4698C17.7619 13.4698 17.8619 13.5398 17.9119 13.5698C17.9119 13.5698 17.9319 13.5698 17.9319 13.5798C17.9919 13.6098 18.0419 13.6298 18.1019 13.6398H18.1219C18.1919 13.6498 18.2519 13.6598 18.3219 13.6598H18.3419C18.4219 13.6598 18.4919 13.6598 18.5819 13.6398C18.5819 14.0298 18.5819 14.7498 18.6819 15.5298C18.7019 15.6998 18.7419 15.8798 18.7819 16.0698C18.9919 16.9998 19.4319 17.8998 19.8919 18.3598C21.1919 19.6598 22.4519 20.6298 23.7019 20.6298C24.9519 20.6298 26.2119 19.6598 27.5119 18.3598C27.9719 17.8998 28.4119 16.9998 28.6219 16.0698C28.6619 15.8798 28.7019 15.6998 28.7219 15.5298C28.8219 14.7598 28.8219 14.0298 28.8219 13.6398C28.9019 13.6598 28.9819 13.6598 29.0519 13.6598H29.0719C29.1419 13.6598 29.2119 13.6598 29.2719 13.6398H29.3019C29.3619 13.6198 29.4219 13.5998 29.4719 13.5698H29.4919C29.5419 13.5298 29.5919 13.4998 29.6419 13.4598L29.6619 13.4398C29.6619 13.4398 29.7519 13.3598 29.7919 13.3098C29.7919 13.3098 29.8019 13.2998 29.8119 13.2898C29.8519 13.2398 29.8919 13.1898 29.9219 13.1398V13.1198C29.9719 13.0598 30.0019 12.9998 30.0319 12.9398V12.9198C30.0719 12.8498 30.1019 12.7798 30.1319 12.7098C30.1619 12.6298 30.1819 12.5598 30.2119 12.4798L30.2819 12.2498C30.2819 12.2498 30.2819 12.2398 30.2819 12.2298C30.3019 12.1498 30.3219 12.0798 30.3319 11.9998C30.3319 11.9998 30.3319 11.9798 30.3319 11.9698C30.3519 11.8898 30.3619 11.8198 30.3819 11.7498V11.7198C30.4019 11.6398 30.4219 11.5698 30.4319 11.4898C30.4419 11.4198 30.4619 11.3498 30.4719 11.2798V11.2398C30.4919 11.1698 30.5019 11.1098 30.5219 11.0498V11.0298L30.5619 10.8498C30.5619 10.8498 30.5619 10.8498 30.5619 10.8398C30.5819 10.7798 30.5919 10.7298 30.6119 10.6798C30.6419 10.5998 30.6619 10.5198 30.6819 10.4398V10.3998C30.7119 10.3198 30.7219 10.2398 30.7219 10.1498C30.7219 10.0898 30.7219 10.0198 30.7219 9.96979C30.7119 9.83979 30.6719 9.72979 30.6019 9.62979C30.6019 9.62979 30.5919 9.61979 30.5819 9.60979C30.5519 9.56979 30.5219 9.53979 30.4819 9.51979C30.4819 9.51979 30.4819 9.51979 30.4719 9.50979C30.4219 9.47979 30.3619 9.44979 30.3019 9.43979C30.2519 9.42979 30.1919 9.41979 30.1319 9.41979C30.1219 9.41979 30.1119 9.41979 30.1019 9.41979C30.0519 9.41979 30.0019 9.41979 29.9619 9.42979C29.9419 9.42979 29.9219 9.42979 29.9119 9.42979C29.8419 9.43979 29.7819 9.45979 29.7119 9.47979C29.7319 9.42979 29.7519 9.35979 29.7619 9.29979C29.7919 9.17979 29.8219 9.43771 29.8419 9.29771L29.8519 9.31771Z" fill="#3D4556"/><path d="M30.0117 6.05992C30.0117 2.94992 27.3117 0.419922 23.9817 0.419922H23.4517C20.1217 0.419922 17.4217 2.93992 17.4217 6.05992L16.7617 8.34992H30.7417L30.0117 6.05992ZM27.3217 6.78992H20.1017C19.9317 6.78992 19.8017 6.65992 19.8017 6.50992C19.8017 6.35992 19.9417 6.22992 20.1017 6.22992H27.3217C27.4917 6.22992 27.6217 6.35992 27.6217 6.50992C27.6217 6.65992 27.4817 6.78992 27.3217 6.78992Z" fill="#3D4556"/><path d="M35.1783 41.9899V41.0399H33.8983V35.8399H35.1783V33.4199C32.1083 30.8599 31.5883 26.3499 33.9783 23.1599L33.2283 22.8399L32.4983 24.5299L27.7283 22.4799L28.4383 20.8299L27.9183 20.6099C26.6283 22.9299 23.7083 23.7699 21.3883 22.4799C20.6083 22.0399 19.9583 21.3999 19.5183 20.6099L18.9783 20.8399L19.9483 22.7899L15.1383 24.7599L14.1783 22.8499L13.4383 23.1599C15.8283 26.3599 15.2983 30.8699 12.2383 33.4199V35.8399H13.5383V41.0299H12.2383V41.9799H13.5383V47.1799H12.2383V49.7299C13.3583 50.8499 18.5383 51.3999 23.7083 51.3999C28.8783 51.3999 34.0683 50.8399 35.1783 49.7299V47.1799H33.8983V41.9799H35.1783V41.9899ZM19.5983 46.9699C19.5983 47.2099 19.4083 47.3999 19.1683 47.3999H15.9483C15.7083 47.3999 15.5183 47.2099 15.5183 46.9699V36.4399C15.5183 36.1999 15.7083 36.0099 15.9483 36.0099H19.1683C19.4083 36.0099 19.5983 36.1999 19.5983 36.4399V46.9699ZM25.7783 46.9699C25.7783 47.2099 25.5883 47.3999 25.3483 47.3999H22.1283C21.8883 47.3999 21.6983 47.2099 21.6983 46.9699V36.4399C21.6983 36.1999 21.8883 36.0099 22.1283 36.0099H25.3483C25.5883 36.0099 25.7783 36.1999 25.7783 36.4399V46.9699ZM31.8883 46.9699C31.8883 47.2099 31.6983 47.3999 31.4583 47.3999H28.2383C27.9983 47.3999 27.8083 47.2099 27.8083 46.9699V36.4399C27.8083 36.1999 27.9983 36.0099 28.2383 36.0099H31.4583C31.6983 36.0099 31.8883 36.1999 31.8883 36.4399V46.9699Z" fill="#3D4556"/><path d="M12.4103 22.7095C12.7203 22.2795 13.0403 21.8595 13.3603 21.4395C13.4403 21.3295 13.3403 21.1795 13.2103 21.2095C12.6903 21.3295 12.1703 21.4795 11.6803 21.6795C11.4803 21.7595 11.2603 21.8295 11.0803 21.9495C11.0503 21.9695 11.0103 21.9795 10.9803 21.9995C10.2203 22.3395 9.49031 22.7695 8.82031 23.2595C8.45031 23.5295 8.10031 23.8195 7.77031 24.1395C7.06031 24.8195 6.46031 25.5995 6.01031 26.4695C5.68031 27.1095 5.43031 27.7895 5.26031 28.4895C5.12031 29.0795 5.04031 29.6795 5.02031 30.2795C5.02031 32.6395 5.02031 33.8295 3.82031 36.1895C2.62031 38.5495 2.62031 42.0995 2.62031 43.8695C2.62031 44.8695 2.33031 45.7695 2.03031 46.7395L1.93031 47.0595C1.86031 47.2795 1.79031 47.5095 1.73031 47.7295C1.60031 48.2095 1.49031 48.6895 1.42031 49.1795C1.26031 50.2795 1.10031 52.5495 1.03031 54.8295C1.03031 55.0995 1.02031 55.3695 1.01031 55.6295C1.01031 55.8995 1.00031 56.1595 1.00031 56.4295C1.00031 56.6894 1.00031 56.9495 1.00031 57.1995C1.00031 57.6795 1.00031 58.1595 1.03031 58.6395C1.03031 58.8595 1.05031 59.0795 1.06031 59.2795C1.08031 59.5895 1.10031 59.8695 1.13031 60.1195C1.17031 60.4495 1.19031 60.7895 1.20031 61.1195C1.20031 61.2895 1.20031 61.4495 1.21031 61.6195C1.21031 63.7595 0.820312 65.8294 0.820312 67.5094C0.820312 68.2194 0.890313 69.2094 1.11031 70.1995C1.21031 70.6495 1.34031 71.0995 1.50031 71.5295C1.63031 71.8695 1.79031 72.1995 1.97031 72.4895C2.52031 73.3795 3.31031 73.9995 4.43031 73.9995C5.03031 73.9995 5.03031 73.4095 4.43031 72.5195C3.83031 71.6295 3.83031 70.1595 3.83031 69.2695C3.83031 68.9394 3.87031 68.6495 3.94031 68.4095C4.03031 68.0994 4.17031 67.8895 4.32031 67.8195C4.35031 67.7995 4.39031 67.7895 4.43031 67.7895C4.52031 67.7895 4.62031 67.9295 4.73031 68.1495L4.84031 68.3595C4.88031 68.4395 4.92031 68.5195 4.96031 68.5995L5.05031 68.7695C5.11031 68.8795 5.18031 68.9995 5.25031 69.1194C5.29031 69.1795 5.33031 69.2295 5.37031 69.2895C5.57031 69.5895 5.85031 69.8295 6.17031 69.9995L6.22031 70.0295C6.29031 70.0695 6.36031 70.0995 6.42031 70.1295H6.44031C6.49031 70.1595 6.55031 70.1795 6.61031 70.1995H6.65031C6.65031 70.1995 6.75031 70.2295 6.80031 70.2295C6.81031 70.2295 6.82031 70.2295 6.83031 70.2295C6.85031 70.2295 6.88031 70.2295 6.90031 70.2195H6.93031C6.93031 70.2195 6.97031 70.1895 6.98031 70.1795C6.98031 70.1795 7.00031 70.1694 7.00031 70.1595C7.02031 70.1395 7.03031 70.1195 7.04031 70.0995C7.04031 70.0995 7.04031 70.0895 7.05031 70.0795C7.06031 70.0395 7.07031 69.9995 7.07031 69.9595V69.9295C7.07031 69.9295 7.07031 69.8495 7.07031 69.8095C7.07031 69.7195 7.04031 69.6195 7.02031 69.5295C7.00031 69.4495 6.97031 69.3595 6.94031 69.2795C6.91031 69.1895 6.87031 69.0995 6.83031 68.9895C6.60031 68.4395 6.50031 67.7995 6.39031 67.1695C6.34031 66.8795 6.28031 66.5895 6.20031 66.3095C6.17031 66.1895 6.13031 66.0695 6.09031 65.9595C5.89031 65.3895 5.58031 64.8895 5.02031 64.5595C4.46031 64.2295 4.23031 63.6495 4.20031 62.9695C4.18031 62.5395 4.24031 62.0695 4.35031 61.5995C4.36031 61.5595 4.37031 61.5095 4.38031 61.4695C4.43031 61.2795 4.48031 61.0895 4.53031 60.8995L4.58031 60.7395C4.72031 60.2995 4.88031 59.8895 5.02031 59.5395C5.62031 58.0595 8.03031 51.8495 8.03031 49.1895C8.03031 48.1095 7.98031 47.4695 8.00031 46.9895C8.00031 46.8195 8.03031 46.6595 8.06031 46.4895L8.08031 46.3995C8.10031 46.3395 8.12031 46.2795 8.14031 46.2195C8.27031 45.8895 8.51031 45.5595 8.92031 45.0495C8.96031 44.9995 9.00031 44.9595 9.03031 44.8995C9.11031 44.7995 9.18031 44.6795 9.25031 44.5595C9.32031 44.4395 9.39031 44.3095 9.46031 44.1695C9.53031 44.0295 9.60031 43.8895 9.66031 43.7295C9.83031 43.3395 9.99031 42.9095 10.1303 42.4895C10.4503 41.4395 10.7603 40.1395 8.82031 35.3295C8.68031 34.9795 8.57031 34.5995 8.49031 34.2195C9.87031 33.8495 11.7103 32.8695 12.8403 30.3395C14.3003 27.0695 12.7303 24.6595 11.8103 23.6195C12.0103 23.3195 12.2003 23.0195 12.4103 22.7195V22.7095Z" fill="#3D4556"/><path d="M46.3008 61.6097C46.3008 61.4397 46.3008 61.2797 46.3108 61.1097C46.3208 60.7797 46.3508 60.4497 46.3808 60.1097C46.4108 59.8597 46.4308 59.5797 46.4508 59.2697C46.4608 59.0597 46.4708 58.8397 46.4808 58.6297C46.4908 58.2797 46.5008 57.9197 46.5008 57.5697C46.5008 57.4497 46.5008 57.3197 46.5008 57.1897C46.5008 56.9397 46.5008 56.6797 46.5008 56.4197C46.5008 56.1597 46.5008 55.8897 46.4908 55.6197C46.4908 55.3597 46.4808 55.0797 46.4708 54.8197C46.4008 52.5397 46.2408 50.2697 46.0808 49.1697C46.0108 48.6797 45.9008 48.1897 45.7708 47.7197C45.7108 47.4897 45.6408 47.2697 45.5708 47.0497L45.4708 46.7297C45.1708 45.7597 44.8808 44.8597 44.8808 43.8597C44.8808 42.0897 44.8808 38.5397 43.6808 36.1797C42.4808 33.8197 42.4808 32.6297 42.4808 30.2697C42.4508 29.6297 42.3708 29.0397 42.2408 28.4797C42.0708 27.7397 41.8108 27.0597 41.4908 26.4597C41.0408 25.5897 40.4408 24.8097 39.7308 24.1297C39.3908 23.8097 39.0408 23.5197 38.6808 23.2497C38.0108 22.7597 37.2808 22.3397 36.5208 21.9897L36.4208 21.9397C36.2408 21.8297 36.0208 21.7497 35.8208 21.6697C35.3208 21.4697 34.8108 21.3197 34.2908 21.1997C34.1608 21.1697 34.0608 21.3197 34.1408 21.4297C34.4608 21.8497 34.7908 22.2697 35.0908 22.6997C35.2908 22.9897 35.4808 23.2897 35.6808 23.5797C34.7608 24.6097 33.1708 27.0297 34.6408 30.3097C35.7808 32.8597 37.6408 33.8297 39.0208 34.1997C38.9408 34.5797 38.8308 34.9497 38.6908 35.3097C36.7508 40.1297 37.0508 41.4197 37.3708 42.4797C37.5108 42.8997 37.6608 43.3197 37.8408 43.7197C37.9108 43.8697 37.9708 44.0197 38.0408 44.1597C38.1108 44.2897 38.1708 44.4197 38.2508 44.5497C38.3508 44.7197 38.4608 44.8797 38.5808 45.0397C39.0008 45.5497 39.2308 45.8797 39.3608 46.2097C39.3908 46.2997 39.4208 46.3897 39.4408 46.4797C39.4808 46.6397 39.5008 46.8097 39.5008 46.9797C39.5208 47.4597 39.4708 48.0997 39.4708 49.1797C39.4708 51.8397 41.8808 58.0497 42.4808 59.5197C42.6408 59.9097 42.7908 60.3097 42.9208 60.7197L42.9708 60.8897C43.0308 61.0797 43.0808 61.2697 43.1208 61.4597C43.1308 61.4997 43.1408 61.5497 43.1508 61.5897C43.2508 62.0597 43.3208 62.5297 43.3008 62.9597C43.2708 63.6397 43.0408 64.2197 42.4808 64.5497C41.9208 64.8797 41.6008 65.3797 41.4108 65.9497C41.3708 66.0597 41.3408 66.1797 41.3008 66.2997C41.2208 66.5797 41.1608 66.8697 41.1108 67.1597C41.0008 67.7897 40.9008 68.4197 40.6708 68.9797C40.6308 69.0897 40.5908 69.1797 40.5608 69.2697C40.5308 69.3497 40.5108 69.4297 40.4808 69.5197C40.4608 69.5897 40.4508 69.6597 40.4408 69.7297V69.7897C40.4408 69.7897 40.4308 69.8697 40.4308 69.9097V69.9497C40.4308 69.9497 40.4308 70.0297 40.4508 70.0697C40.4508 70.0797 40.4608 70.0897 40.4608 70.0897C40.4608 70.1097 40.4808 70.1297 40.5008 70.1497L40.5208 70.1697C40.5208 70.1697 40.5508 70.1897 40.5708 70.1997C40.5808 70.1997 40.5908 70.1997 40.6008 70.2097C40.6208 70.2097 40.6508 70.2097 40.6708 70.2197C40.6708 70.2197 40.6908 70.2197 40.7008 70.2197C40.7508 70.2197 40.8008 70.2197 40.8508 70.1997C40.8608 70.1997 40.8708 70.1997 40.8908 70.1897C40.9408 70.1697 41.0008 70.1497 41.0608 70.1297H41.0808C41.1508 70.0897 41.2108 70.0597 41.2808 70.0197L41.3308 69.9897C41.6508 69.8197 41.9308 69.5797 42.1308 69.2797C42.1708 69.2197 42.2108 69.1697 42.2508 69.1097C42.3208 68.9997 42.3908 68.8797 42.4508 68.7597C42.4808 68.6997 42.5108 68.6397 42.5408 68.5897C42.5908 68.5097 42.6208 68.4297 42.6608 68.3497L42.7708 68.1397C42.8808 67.9197 42.9808 67.7797 43.0708 67.7797C43.1108 67.7797 43.1508 67.7797 43.1808 67.8097C43.3308 67.8797 43.4708 68.0897 43.5608 68.3997C43.6308 68.6397 43.6708 68.9197 43.6708 69.2597C43.6708 70.1497 43.6708 71.6197 43.0708 72.5097C42.4708 73.3997 42.4708 73.9897 43.0708 73.9897C44.2008 73.9897 44.9908 73.3597 45.5308 72.4797C45.7108 72.1697 45.8708 71.8497 46.0008 71.5197C46.1708 71.0897 46.2908 70.6397 46.3908 70.1897C46.6108 69.1997 46.6808 68.2097 46.6808 67.4897C46.6808 65.8097 46.2808 63.7397 46.2908 61.5897L46.3008 61.6097Z" fill="#3D4556"/></g><defs><clipPath id="clip0_8583_99078"><rect width="47" height="130.16" fill="white" transform="translate(0 0.419922)"/></clipPath></defs></svg>