<svg width="47" height="131" viewBox="0 0 47 131" fill="none" xmlns="http://www.w3.org/2000/svg"><g clip-path="url(#clip0_8583_99067)"><path d="M21.7919 68.5195C22.306 68.6642 22.6322 69.2442 22.5448 69.8416L22.542 69.8545C22.5128 70.0389 22.4734 70.2694 22.4226 70.5368C22.3878 70.7157 22.3512 70.9102 22.306 71.1158C22.2609 71.3223 22.213 71.5445 22.1603 71.7778C22.1162 71.9806 22.0654 72.1927 22.0146 72.4121L21.8981 72.9008C21.7684 73.4281 21.6274 73.9887 21.4741 74.5677C21.2833 75.2896 21.1216 75.545 20.9045 76.2845C20.7729 76.7307 20.6404 77.1696 20.5022 77.6011C20.3273 78.1545 20.1417 78.7048 19.9457 79.2514C19.7043 79.9442 19.4267 80.6243 19.1138 81.289C18.6607 82.2202 18.4069 83.7867 18.2528 84.8027C18.1917 85.2093 18.1437 85.6131 18.1099 86.0068C18.0563 86.5987 18.0253 87.1685 17.9961 87.694C17.9773 88.0425 17.9557 88.3726 17.9322 88.6769C17.8815 89.2835 17.81 89.7805 17.6643 90.1115C17.5553 90.3604 17.4575 90.5264 17.3729 90.672C17.3013 90.7857 17.2408 90.9058 17.1924 91.0307C17.1347 91.1882 17.0984 91.3525 17.0843 91.5193C17.074 91.6032 17.0684 91.6945 17.0627 91.7978C17.0599 91.9011 17.058 92.0163 17.058 92.1435C17.0599 92.9143 17.1558 94.1737 17.3729 96.4086C17.9529 102.373 15.6377 102.703 14.4796 109.662C14.2628 110.757 14.0816 111.859 13.9363 112.966C13.8302 113.782 13.7422 114.599 13.6721 115.419C13.627 115.954 13.5904 116.472 13.5631 116.973C13.5245 117.674 13.5042 118.376 13.502 119.078C13.502 119.293 13.5048 119.499 13.5095 119.7C13.5227 120.3 13.5575 120.828 13.6101 121.263C13.6815 121.842 13.7003 122.339 13.674 122.764C13.6552 123.083 13.6082 123.358 13.5424 123.601C13.4277 124.001 13.2557 124.301 13.0414 124.523C12.8767 124.692 12.6756 124.822 12.453 124.905C11.6925 125.193 10.7121 125.484 9.70347 126.662C9.54909 126.841 9.40384 127.029 9.26825 127.222C9.02999 127.572 8.75596 127.896 8.45045 128.19C8.22403 128.402 7.97686 128.591 7.71255 128.755C7.24443 129.042 6.81015 129.209 6.37493 129.54C6.37493 129.543 6.37211 129.543 6.37211 129.543C6.27153 129.613 6.18223 129.677 6.09199 129.738L6.02807 129.78C5.94065 129.838 5.85887 129.895 5.77897 129.944L5.75077 129.962C5.66734 130.012 5.58304 130.062 5.49791 130.11C5.43346 130.148 5.36728 130.184 5.29957 130.216C5.28641 130.222 5.27513 130.225 5.26479 130.232C5.21215 130.256 5.15857 130.281 5.10875 130.302C5.04513 130.327 4.98054 130.35 4.91511 130.371L4.88033 130.38C4.83867 130.392 4.79628 130.401 4.75343 130.408C4.74779 130.408 4.74027 130.411 4.73181 130.411C4.68481 130.417 4.64157 130.42 4.60021 130.42H4.56543C4.54381 130.42 4.52031 130.42 4.49963 130.416C4.48553 130.416 4.47237 130.416 4.46203 130.413C4.43886 130.411 4.41591 130.407 4.39341 130.401C4.38495 130.399 4.37461 130.399 4.36615 130.395C4.3348 130.387 4.30402 130.377 4.27403 130.365L4.25241 130.356C4.22891 130.344 4.20541 130.335 4.18097 130.323L4.14901 130.305C4.12935 130.294 4.11021 130.283 4.09167 130.271L4.05689 130.25C4.03615 130.237 4.01577 130.224 3.99579 130.21L3.96665 130.189C3.93878 130.17 3.91151 130.149 3.88487 130.128C3.87923 130.128 3.87641 130.126 3.87359 130.123C3.84539 130.098 3.81061 130.074 3.77865 130.046L3.73823 130.013C3.71473 129.998 3.69405 129.98 3.67243 129.962C3.64047 129.938 3.61133 129.91 3.57937 129.886L3.53425 129.849C3.50457 129.824 3.47449 129.8 3.44401 129.776C3.43367 129.767 3.42521 129.761 3.41581 129.752C3.37257 129.722 3.33121 129.689 3.28797 129.655C3.28036 129.649 3.27252 129.643 3.26447 129.637C3.22969 129.609 3.19303 129.583 3.15543 129.555C3.13945 129.543 3.12347 129.534 3.10843 129.522C3.07647 129.498 3.04451 129.477 3.00973 129.452L2.95427 129.416C2.91949 129.392 2.88001 129.367 2.84335 129.343C2.82737 129.331 2.81139 129.322 2.79259 129.31C2.73431 129.273 2.67603 129.24 2.61587 129.203C2.18065 128.955 1.95035 128.706 1.89207 128.438C1.88369 128.395 1.87928 128.35 1.87891 128.306C1.87891 128.172 1.92121 128.029 2.00111 127.881C2.08101 127.732 2.19945 127.575 2.35079 127.41C2.50401 127.244 2.68919 127.071 2.90727 126.882C3.12347 126.695 3.34155 126.485 3.56433 126.254C3.78711 126.025 4.01553 125.772 4.25523 125.503C4.33513 125.414 4.41691 125.32 4.49963 125.226C4.74591 124.944 5.00723 124.644 5.28923 124.325C5.91612 123.61 6.56889 122.917 7.24631 122.247C8.89131 120.634 9.39233 119.017 9.36601 117.758C9.35908 117.486 9.3273 117.215 9.27107 116.948C9.2087 116.47 9.15198 115.992 9.10093 115.513C8.98411 114.41 8.88946 113.305 8.81705 112.198C8.73928 111.011 8.68099 109.822 8.64221 108.633C8.48147 103.764 8.61589 98.8436 8.97873 95.7374C9.01633 95.1584 9.06615 94.6393 9.12443 94.1728C9.2014 93.5679 9.30489 92.9665 9.43463 92.3703C9.51171 92.0311 9.58785 91.7213 9.66493 91.4327C9.70253 91.2907 9.73919 91.1506 9.77585 91.0178C9.79465 90.9477 9.81063 90.8841 9.82943 90.8177C9.91403 90.4895 9.99393 90.1834 10.055 89.8708C10.0682 89.8072 10.0785 89.7464 10.0898 89.6828C10.1838 89.1185 10.2186 88.5303 10.1368 87.7835C10.1032 87.6443 10.076 87.5037 10.055 87.3621C9.99301 86.9505 9.97349 86.5338 9.99675 86.1184C10.0071 85.8454 10.0343 85.5725 10.0682 85.3024C10.118 84.8967 10.1866 84.4892 10.2534 84.0835C10.2985 83.8106 10.3408 83.5396 10.3774 83.2648C10.4714 82.5789 10.5156 81.8818 10.4254 81.1562C9.97795 75.5072 10.2242 68.8293 10.8973 62.463C10.9255 62.1808 11.2394 62.096 11.3851 62.3228C14.0058 66.4404 19.2962 67.792 21.7919 68.5195ZM35.6136 62.3228C35.7584 62.096 36.0714 62.1808 36.1005 62.463C36.7736 68.8302 37.0199 75.5081 36.5724 81.1562C36.4822 81.8809 36.5273 82.5789 36.6194 83.2648C36.657 83.5405 36.6993 83.8106 36.7444 84.0835C36.8102 84.4892 36.8798 84.8958 36.9296 85.3024C36.9644 85.5725 36.9907 85.8454 37.0011 86.1184C37.0148 86.3934 37.0113 86.6689 36.9907 86.9435C36.9686 87.2266 36.9253 87.5076 36.861 87.7844C36.7778 88.4798 36.8054 89.1837 36.9428 89.8708C37.0039 90.1834 37.0838 90.4895 37.1684 90.8177C37.1872 90.8841 37.2032 90.9468 37.222 91.0178C37.2586 91.1506 37.2962 91.2898 37.3329 91.4327C37.41 91.7213 37.4861 92.0311 37.5632 92.3703C37.623 92.6466 37.6778 92.9238 37.7277 93.202C37.7803 93.4989 37.8283 93.8234 37.8734 94.1728C37.9317 94.6393 37.9815 95.1584 38.0191 95.7374C38.3819 98.8436 38.5173 103.764 38.3556 108.633C38.3169 109.822 38.2586 111.011 38.1808 112.198C38.1087 113.305 38.0141 114.41 37.8969 115.513C37.8461 115.992 37.7897 116.47 37.7277 116.948C37.6741 117.197 37.6403 117.47 37.6318 117.758C37.6055 119.017 38.1056 120.634 39.7515 122.247C40.511 122.994 41.1474 123.691 41.7086 124.325C41.9906 124.644 42.2519 124.944 42.4982 125.226C42.5809 125.32 42.6627 125.414 42.7426 125.503C42.9832 125.772 43.2117 126.025 43.4335 126.254C43.6563 126.485 43.8734 126.695 44.0915 126.882C44.3077 127.07 44.4938 127.244 44.647 127.41C44.7984 127.575 44.9177 127.732 44.9967 127.881C45.0757 128.029 45.1189 128.172 45.1189 128.306C45.1185 128.35 45.1141 128.395 45.1057 128.438C45.0475 128.706 44.8172 128.955 44.3819 129.203C44.3218 129.24 44.2635 129.273 44.2052 129.31C44.1864 129.322 44.1704 129.331 44.1545 129.343C44.1169 129.367 44.0774 129.392 44.0435 129.416L43.9871 129.452C43.9533 129.477 43.9213 129.498 43.8903 129.522L43.8424 129.555C43.8048 129.583 43.7672 129.609 43.7333 129.637C43.7253 129.643 43.7175 129.649 43.7098 129.655C43.6675 129.689 43.6252 129.722 43.583 129.752L43.5538 129.776C43.5233 129.8 43.4932 129.824 43.4636 129.849L43.4184 129.886C43.3865 129.91 43.3573 129.938 43.3254 129.962C43.305 129.981 43.283 129.998 43.2596 130.013L43.2192 130.046C43.1881 130.074 43.1534 130.098 43.1242 130.123C43.1214 130.126 43.1186 130.128 43.1139 130.128L43.0312 130.189L43.003 130.21C42.9832 130.225 42.9625 130.238 42.9409 130.25L42.9071 130.271C42.8882 130.283 42.8688 130.294 42.8488 130.305L42.8168 130.323C42.7924 130.335 42.7689 130.344 42.7454 130.356L42.7238 130.365C42.6935 130.377 42.6624 130.387 42.6307 130.395C42.6232 130.399 42.6119 130.399 42.6044 130.401C42.5819 130.407 42.5589 130.411 42.5358 130.413C42.5234 130.416 42.5108 130.417 42.4982 130.416C42.4775 130.42 42.454 130.42 42.4324 130.42H42.3985C42.3553 130.42 42.3139 130.416 42.266 130.411C42.2575 130.411 42.25 130.408 42.2444 130.408C42.2015 130.401 42.1592 130.392 42.1175 130.38L42.0827 130.371C42.017 130.351 41.9524 130.328 41.8891 130.302C41.8392 130.281 41.7857 130.256 41.733 130.232C41.7217 130.225 41.7114 130.222 41.6982 130.216C41.6306 130.183 41.5644 130.148 41.4999 130.11L41.4492 130.083C41.3852 130.046 41.3175 130.004 41.248 129.962L41.2188 129.944C41.139 129.895 41.0572 129.838 40.9697 129.78L40.9058 129.738C40.8156 129.678 40.7263 129.613 40.6257 129.543C40.6257 129.543 40.6229 129.543 40.6229 129.54C40.1886 129.209 39.7534 129.042 39.2853 128.755C39.1608 128.679 39.0403 128.596 38.9243 128.509C38.7935 128.409 38.668 128.303 38.5483 128.19C38.2426 127.896 37.9683 127.571 37.7296 127.222C37.5942 127.028 37.449 126.841 37.2943 126.662C36.2848 125.484 35.3053 125.193 34.5448 124.905C34.3221 124.822 34.1211 124.692 33.9564 124.523C33.7421 124.301 33.5701 124.001 33.4563 123.601C33.3828 123.327 33.3384 123.046 33.3238 122.764C33.2975 122.339 33.3163 121.842 33.3877 121.263C33.4403 120.828 33.4742 120.3 33.4883 119.7C33.493 119.5 33.4958 119.293 33.4958 119.078C33.4958 118.432 33.4742 117.725 33.4347 116.973C33.4065 116.454 33.3701 115.936 33.3257 115.419C33.2555 114.6 33.1674 113.782 33.0615 112.966C32.9527 112.134 32.8236 111.304 32.6742 110.478C32.6235 110.205 32.5737 109.931 32.5173 109.662C31.3601 102.703 29.0449 102.373 29.6249 96.4086C29.8411 94.1737 29.9379 92.9143 29.9398 92.1435C29.9398 92.0163 29.9379 91.9011 29.9351 91.7978C29.9311 91.7045 29.9239 91.6113 29.9135 91.5184C29.906 91.4432 29.8947 91.3685 29.8796 91.2944C29.8613 91.2048 29.8361 91.1166 29.8044 91.0307C29.7564 90.9058 29.6962 90.7857 29.6249 90.672C29.5403 90.5273 29.4425 90.3604 29.3335 90.1115C29.1878 89.7805 29.1163 89.2835 29.0656 88.6769C29.0401 88.3495 29.0188 88.0219 29.0017 87.694C28.9739 87.131 28.9363 86.5685 28.8889 86.0068C28.8533 85.6041 28.8054 85.2025 28.745 84.8027C28.5909 83.7867 28.3371 82.2211 27.884 81.2899C27.5713 80.6248 27.2937 79.9444 27.0521 79.2514C26.856 78.7048 26.6704 78.1546 26.4956 77.6011C26.3569 77.1636 26.2228 76.7247 26.0933 76.2845C25.8762 75.5441 25.7145 75.2896 25.5237 74.5677C25.3773 74.0131 25.2363 73.4571 25.1007 72.8998L24.9832 72.4112C24.9333 72.1936 24.8826 71.9806 24.8375 71.7778C24.7839 71.5436 24.7369 71.3233 24.6918 71.1158C24.6017 70.6975 24.523 70.2769 24.4558 69.8545L24.453 69.8416C24.3656 69.2442 24.6918 68.6652 25.205 68.5195C27.7026 67.7911 32.9929 66.4386 35.6136 62.3228Z" fill="#2D323E"/><path d="M35.8855 59.2722C35.8126 58.8933 35.7355 58.5153 35.6543 58.1381C35.36 56.769 35.0132 56.2692 34.6767 55.0642L34.6221 54.8669C34.3721 53.9735 34.1277 53.1299 33.9218 52.3444C33.7851 51.8339 33.6628 51.3199 33.5552 50.8028C33.5082 50.5603 33.4641 50.3261 33.4283 50.0975C33.3769 49.7813 33.3414 49.4628 33.3221 49.1432C33.3165 49.0353 33.3108 48.9275 33.3108 48.8242C33.3052 48.0368 33.4556 47.3785 33.8363 46.8659C33.9855 46.656 34.1199 46.4364 34.2386 46.2085C34.2822 46.1255 34.3239 46.0416 34.3636 45.9568C34.4468 45.7787 34.5245 45.5982 34.5968 45.4156C34.7378 45.0616 34.8665 44.6808 34.9822 44.2926C34.9944 44.2502 35.0085 44.2097 35.0198 44.1682C35.0696 44.0013 35.1156 43.8344 35.1608 43.6648C35.172 43.6279 35.1796 43.5901 35.1908 43.5523C35.3857 42.7981 35.5497 42.0365 35.6825 41.2695C35.7389 40.0054 34.1691 39.7943 31.3509 40.0156C31.3164 40.0229 31.281 40.026 31.2457 40.0248C30.5267 40.1058 29.8036 40.1464 29.0799 40.1465H29.0141L28.9464 40.1391C26.9329 39.9326 25.7974 39.467 24.9702 39.1258C24.3291 38.8631 23.9983 38.7358 23.5264 38.7358C23.0536 38.7358 22.7236 38.8631 22.0825 39.1258C21.2553 39.467 20.1198 39.9317 18.1063 40.1391L18.0396 40.1465H17.9729C17.2491 40.1462 16.526 40.1052 15.8071 40.0239C15.7717 40.0253 15.7364 40.0222 15.7018 40.0146C12.8828 39.7934 11.3139 40.0054 11.3694 41.2695C11.5022 42.0362 11.6662 42.7975 11.861 43.5514C11.8732 43.5901 11.8807 43.627 11.892 43.6648C11.9371 43.8344 11.9841 44.0013 12.033 44.1682C12.0443 44.2106 12.0584 44.2502 12.0697 44.2926C12.1862 44.6799 12.3141 45.0616 12.4551 45.4156C12.5303 45.6037 12.6083 45.7844 12.6891 45.9568C12.7305 46.0435 12.77 46.1256 12.8141 46.2085C12.9324 46.4369 13.0668 46.6569 13.2165 46.8668C13.5972 47.3785 13.7476 48.0368 13.7419 48.8242C13.7319 49.2507 13.693 49.6761 13.6254 50.0975C13.5452 50.5858 13.4468 51.0711 13.3302 51.5524C13.2691 51.8105 13.2024 52.0724 13.1309 52.3453C12.9251 53.129 12.6797 53.9735 12.4306 54.8669C12.4118 54.9324 12.3949 54.9988 12.3752 55.0642C12.0396 56.2702 11.6927 56.7699 11.3976 58.139C11.3177 58.5078 11.2425 58.8858 11.1673 59.2722C11.0394 59.9415 11.2707 60.6302 11.8065 61.1355C14.9602 64.7054 20.0127 67.1441 23.5245 67.1487H23.5301C27.0429 67.1441 32.0945 64.7054 35.2482 61.1355C35.7821 60.6302 36.0124 59.9415 35.8855 59.2722Z" fill="#2D323E"/><path d="M8.57976 35.6676C8.24324 34.8387 8.07028 33.9186 8.07028 32.9173C8.07028 32.235 8.16428 31.5592 8.3128 30.8935C8.4726 30.1836 8.69538 29.4893 8.95952 28.8098C9.23212 28.1091 9.5489 27.4213 9.89576 26.7529C10.2379 26.0891 10.6102 25.4437 11.0031 24.8075C11.3725 24.2119 11.7607 23.6301 12.1649 23.0594C12.4714 22.6261 12.7957 22.2066 13.1181 21.7871C13.2008 21.6792 13.1021 21.5243 12.9696 21.5566C12.4465 21.673 11.9335 21.8296 11.4355 22.025C11.2381 22.1042 11.0172 22.1798 10.8376 22.2914C10.8047 22.3071 10.7718 22.3209 10.7389 22.3375C9.9763 22.6823 9.25183 23.1031 8.57694 23.5933C8.20748 23.8616 7.857 24.1543 7.5279 24.4691C6.8146 25.146 6.21977 25.9335 5.76728 26.7999C5.43455 27.4418 5.18387 28.1215 5.02092 28.8237C4.88511 29.4115 4.80394 30.0101 4.7784 30.6123C4.7784 32.9772 4.7784 34.1601 3.5752 36.525C2.372 38.8899 2.372 42.4377 2.372 44.2098C2.372 45.2083 2.0853 46.1128 1.78168 47.0808L1.68016 47.4054C1.61007 47.628 1.54394 47.8517 1.48182 48.0766C1.3478 48.5544 1.24296 49.0396 1.16786 49.5296C1.00806 50.6286 0.84826 52.8958 0.77964 55.1805C0.77118 55.4479 0.76554 55.7189 0.75802 55.9835C0.75144 56.2509 0.74674 56.5174 0.74674 56.7792C0.74392 57.042 0.74392 57.2992 0.74392 57.5537C0.742283 58.0339 0.751686 58.514 0.77212 58.9938C0.77964 59.2179 0.79092 59.4318 0.80126 59.6346C0.821 59.9407 0.84262 60.2219 0.87082 60.4708C0.90842 60.8028 0.93098 61.1365 0.94508 61.4666C0.95072 61.6325 0.9526 61.7967 0.95542 61.9617C0.95824 64.1016 0.5625 66.1761 0.5625 67.855C0.5625 68.5668 0.63394 69.557 0.8492 70.55C0.9479 71.0018 1.0748 71.4535 1.24024 71.8813C1.37184 72.2225 1.526 72.5498 1.70836 72.8448C2.25356 73.7327 3.0441 74.3569 4.17304 74.3569C4.7737 74.3569 4.7737 73.7668 4.17304 72.8799C3.57238 71.9929 3.57238 70.515 3.57238 69.6271C3.57238 69.2952 3.61374 69.0047 3.68236 68.7696C3.77354 68.4589 3.9136 68.2469 4.06024 68.1768C4.09488 68.1585 4.13367 68.1489 4.17304 68.1491C4.26704 68.1491 4.3601 68.293 4.4729 68.5096L4.58006 68.7208C4.6186 68.7964 4.65714 68.8775 4.70226 68.9614L4.78968 69.132C4.85078 69.2454 4.9194 69.3625 4.99084 69.4786C5.02656 69.5349 5.06604 69.592 5.10646 69.6483C5.30964 69.9454 5.58397 70.1892 5.90546 70.3582L5.95528 70.3877C6.02672 70.4246 6.09346 70.4615 6.15926 70.4901L6.18088 70.4993C6.23522 70.5211 6.29041 70.5407 6.34632 70.5583L6.38392 70.5684C6.43357 70.5819 6.48471 70.5893 6.5362 70.5906C6.54748 70.5906 6.55782 70.5878 6.56628 70.5878C6.59072 70.585 6.6161 70.5823 6.63772 70.5767L6.67156 70.5657C6.69042 70.5576 6.70786 70.5467 6.72326 70.5334C6.73172 70.5251 6.74018 70.5196 6.7477 70.5113C6.76436 70.4932 6.77743 70.4723 6.78624 70.4495C6.78906 70.4412 6.7947 70.4357 6.80034 70.4246C6.81473 70.3864 6.82298 70.3463 6.82478 70.3057V70.2706C6.8276 70.2328 6.82478 70.1923 6.82196 70.1489C6.81372 70.0553 6.79641 69.9627 6.77026 69.8723C6.74751 69.7884 6.72148 69.7054 6.69224 69.6234C6.66216 69.534 6.62644 69.439 6.58508 69.3339C6.35948 68.7798 6.25984 68.1436 6.14704 67.5157C6.0982 67.2263 6.03578 66.9393 5.95998 66.6555C5.92893 66.5368 5.89318 66.4193 5.85282 66.3033C5.65448 65.7317 5.34334 65.232 4.7784 64.9019C4.2144 64.5718 3.98786 63.9873 3.95684 63.3106C3.93804 62.8809 4.00102 62.4098 4.10348 61.9442C4.11382 61.9008 4.12228 61.8547 4.13356 61.8114C4.18056 61.6187 4.23226 61.4297 4.28772 61.2398L4.33754 61.0757C4.47854 60.6368 4.63458 60.2228 4.77558 59.8771C5.3753 58.3991 7.78358 52.1914 7.78358 49.5315C7.78358 48.4509 7.73282 47.8074 7.75538 47.3279C7.76229 47.1605 7.78367 46.9939 7.8193 46.8301L7.84374 46.7379C7.85972 46.6789 7.88134 46.6189 7.9039 46.559C8.0355 46.2317 8.2705 45.8989 8.68598 45.3899C8.72452 45.3438 8.76118 45.2959 8.79878 45.2442C8.87398 45.141 8.94448 45.0276 9.01686 44.9031C9.0883 44.7814 9.15692 44.6486 9.22554 44.5113C9.29416 44.373 9.3609 44.2264 9.4267 44.0752C9.5959 43.6852 9.75194 43.2574 9.89482 42.8305C10.2163 41.7794 10.5218 40.484 8.5807 35.6667L8.57976 35.6676ZM38.4238 35.6676C38.421 35.6676 38.421 35.6676 38.4238 35.6676C38.7594 34.8387 38.9333 33.9186 38.9333 32.9173C38.9333 32.235 38.8393 31.5592 38.6908 30.8935C38.531 30.1836 38.3082 29.4893 38.0441 28.8098C37.7715 28.1091 37.4537 27.4213 37.1069 26.7529C36.7657 26.0891 36.3944 25.4437 36.0005 24.8075C35.6312 24.2133 35.2434 23.6303 34.8377 23.0594C34.5322 22.6261 34.2079 22.2066 33.8846 21.7871C33.8028 21.6792 33.9015 21.5243 34.034 21.5566C34.5571 21.673 35.0701 21.8296 35.5681 22.025C35.7655 22.1042 35.9864 22.1798 36.165 22.2914L36.2646 22.3375C37.0273 22.6823 37.7518 23.1031 38.4266 23.5933C38.7876 23.856 39.1401 24.1474 39.4757 24.4691C40.189 25.146 40.7838 25.9335 41.2363 26.7999C41.5531 27.4084 41.8097 28.0824 41.9827 28.8237C42.1114 29.3815 42.197 29.9762 42.2242 30.6123C42.2242 32.9772 42.2242 34.1601 43.4284 36.525C44.6316 38.8899 44.6316 42.4377 44.6316 44.2098C44.6316 45.2083 44.9183 46.1128 45.2219 47.0808L45.3234 47.4054C45.392 47.6248 45.4588 47.847 45.5208 48.0766C45.6553 48.5543 45.7602 49.0395 45.8348 49.5296C45.9955 50.6286 46.1544 52.8967 46.2239 55.1805C46.2324 55.4479 46.238 55.7189 46.2456 55.9835C46.2512 56.2509 46.2568 56.5174 46.2568 56.7792C46.2597 57.042 46.2597 57.2992 46.2597 57.5537C46.2597 57.6809 46.2597 57.8054 46.2568 57.9298C46.2547 58.2843 46.2466 58.6387 46.2324 58.9929C46.224 59.2069 46.2137 59.4208 46.2014 59.6346C46.1826 59.9407 46.16 60.2219 46.1328 60.4708C46.0952 60.8028 46.0726 61.1365 46.0585 61.4666C46.0529 61.6325 46.051 61.7967 46.0482 61.9617C46.0341 64.1081 46.4336 66.1779 46.4336 67.8578C46.4336 68.5696 46.3621 69.5607 46.1469 70.5537C46.0482 71.0055 45.9213 71.4572 45.7558 71.885C45.6293 72.2189 45.4727 72.5411 45.2877 72.8476C44.7425 73.7355 43.952 74.3606 42.823 74.3606C42.2224 74.3606 42.2224 73.7705 42.823 72.8835C43.4237 71.9957 43.4237 70.5186 43.4237 69.6308C43.4237 69.2979 43.3823 69.0084 43.3137 68.7733C43.2225 68.4617 43.0825 68.2506 42.9368 68.1796C42.902 68.1615 42.8632 68.1523 42.824 68.1528C42.73 68.1528 42.636 68.2967 42.5232 68.5124L42.416 68.7245C42.3775 68.8001 42.3389 68.8812 42.2938 68.9642C42.2675 69.0195 42.2374 69.0748 42.2064 69.1347C42.1428 69.2522 42.0758 69.3678 42.0052 69.4814C41.9686 69.5395 41.9301 69.5964 41.8896 69.652C41.6865 69.9492 41.4122 70.193 41.0906 70.3619L41.0408 70.3905C40.9693 70.4283 40.9035 70.4642 40.8377 70.4937L40.8152 70.502C40.7578 70.526 40.7024 70.5454 40.6497 70.5611C40.6366 70.5638 40.6253 70.5694 40.6121 70.5721C40.5625 70.5856 40.5113 70.593 40.4599 70.5942C40.4495 70.5942 40.4382 70.5915 40.4298 70.5915C40.4053 70.5887 40.38 70.5859 40.3583 70.5804C40.3471 70.5776 40.3367 70.5721 40.3254 70.5694C40.3063 70.5614 40.2885 70.5505 40.2728 70.5371L40.2484 70.5159C40.2317 70.4975 40.2186 70.4762 40.2098 70.4532C40.207 70.4449 40.2014 70.4394 40.1957 70.4292C40.1812 70.3908 40.173 70.3503 40.1713 70.3094V70.2743C40.1685 70.2374 40.1713 70.1959 40.1741 70.1526L40.1826 70.0881C40.192 70.0164 40.2068 69.9456 40.2267 69.876C40.2491 69.7921 40.2748 69.709 40.3038 69.6271C40.3339 69.5386 40.3696 69.4436 40.411 69.3376C40.6366 68.7835 40.7362 68.1482 40.849 67.5194C40.9017 67.2272 40.959 66.9386 41.037 66.6592C41.0699 66.5394 41.1028 66.4213 41.1442 66.307C41.3416 65.7363 41.6537 65.2357 42.2177 64.9056C42.7826 64.5755 43.0082 63.991 43.0392 63.3152C43.058 62.8846 42.995 62.4135 42.8926 61.9479C42.8822 61.9045 42.8738 61.8584 42.8625 61.8151C42.8153 61.6238 42.7639 61.4335 42.7083 61.2444L42.6585 61.0784C42.5275 60.6738 42.3813 60.274 42.2205 59.8798C41.6208 58.4028 39.2134 52.1951 39.2134 49.5352C39.2134 48.4555 39.2632 47.8111 39.2416 47.3316C39.2345 47.1642 39.2131 46.9977 39.1777 46.8337C39.1554 46.7417 39.1271 46.6512 39.0931 46.5627C38.9596 46.2363 38.7265 45.9035 38.3101 45.3945C38.1876 45.2406 38.077 45.0778 37.9792 44.9077C37.9053 44.779 37.8357 44.6481 37.7705 44.515C37.7019 44.3767 37.6352 44.231 37.5694 44.0789C37.3961 43.6704 37.24 43.2551 37.1012 42.8342C36.7854 41.7794 36.4808 40.484 38.4238 35.6676Z" fill="#3D4556"/><path d="M37.2588 31.191C37.0745 30.3409 36.785 29.513 36.4438 28.709C36.0844 27.8758 35.6761 27.0637 35.2208 26.2768C34.7873 25.5228 34.3216 24.787 33.825 24.0714C33.2588 23.2524 32.6566 22.4578 32.0202 21.6899C31.6489 21.2677 30.8583 20.5992 29.1588 21.2105C29.1496 21.2139 29.1402 21.2167 29.1306 21.2188C29.0902 21.2345 29.0488 21.2538 29.0046 21.2695C28.074 21.6291 27.1265 21.9546 26.1564 22.209C25.2954 22.4358 24.3968 22.6331 23.4991 22.6331C22.6014 22.6331 21.7037 22.4395 20.8417 22.209C19.8754 21.9472 18.9246 21.6336 17.9935 21.2695C17.9521 21.2538 17.9117 21.2345 17.8675 21.2188C17.8583 21.2155 17.8489 21.2127 17.8393 21.2105C16.1426 20.5992 15.3493 21.2677 14.978 21.6899C14.3399 22.4566 13.7377 23.2512 13.1732 24.0714C12.6768 24.7871 12.2115 25.5228 11.7782 26.2768C11.3222 27.0633 10.9138 27.8754 10.5553 28.709C10.2052 29.5096 9.93238 30.3406 9.74027 31.191C9.61151 31.7578 9.54408 32.3363 9.53911 32.917C9.53715 33.4339 9.59421 33.9494 9.70925 34.4539C9.82205 34.9278 9.98749 35.3639 10.1999 35.7641C10.4644 36.2556 10.8064 36.703 11.2133 37.0899C11.5436 37.4031 11.9087 37.6789 12.3018 37.9123C12.7131 38.1583 13.1475 38.3652 13.599 38.53C13.9468 38.6591 14.3124 38.7697 14.6922 38.8619C14.946 38.9246 15.2045 38.9781 15.4686 39.0242C15.7337 39.0703 16.0035 39.1081 16.2789 39.1385C16.8298 39.1975 17.3994 39.228 17.9869 39.228C21.2807 38.838 21.8418 37.6043 23.4953 37.6043C25.1478 37.6043 25.709 38.838 29.0037 39.227C29.5903 39.227 30.1599 39.1975 30.7107 39.1385C30.9861 39.1081 31.2559 39.0703 31.521 39.0242C31.7852 38.9781 32.0437 38.9246 32.2975 38.8619C32.7878 38.7433 33.2678 38.5867 33.7328 38.3936C34.0626 38.2554 34.3821 38.0946 34.6888 37.9123C35.0818 37.6788 35.4469 37.403 35.7773 37.0899C36.1842 36.703 36.5261 36.2556 36.7907 35.7641C37.0022 35.3639 37.1667 34.9278 37.2795 34.4548C37.3359 34.216 37.3791 33.9699 37.4064 33.7154C37.4995 32.8717 37.4496 32.0187 37.2588 31.191Z" fill="#3D4556"/><path d="M30.5276 9.76148V9.74765C30.5161 9.63253 30.4764 9.52184 30.412 9.42496C30.4052 9.41991 30.3995 9.41365 30.3951 9.40652C30.368 9.37126 30.3357 9.34018 30.2992 9.31432C30.2935 9.31155 30.2907 9.30694 30.2851 9.30418C30.2334 9.27147 30.1766 9.24747 30.1168 9.23318C30.0619 9.21896 30.0053 9.21183 29.9486 9.21198C29.9382 9.21198 29.9269 9.21198 29.9157 9.21474C29.8677 9.21533 29.8199 9.21996 29.7728 9.22857C29.7553 9.23141 29.7377 9.23387 29.7201 9.23595C29.6524 9.2504 29.5853 9.26763 29.519 9.28758C29.5387 9.23318 29.5556 9.17141 29.5716 9.10872C29.6045 8.98148 29.6318 8.83857 29.6562 8.68645C29.6703 8.61084 29.6816 8.53248 29.6929 8.45318C29.7145 8.29368 29.7305 8.12864 29.7446 7.96453C29.753 7.88247 29.7587 7.79857 29.7643 7.71744C29.7756 7.55517 29.7859 7.39474 29.7925 7.24723C29.817 6.72723 29.817 6.33262 29.817 6.33262C29.817 6.17219 29.8076 6.01269 29.7972 5.85872C29.6976 4.29134 29.1054 2.98212 28.108 2.04077C27.7256 1.68209 27.2917 1.38018 26.8202 1.1446C26.5453 1.00974 26.2607 0.894796 25.9686 0.800702C25.7211 0.718497 25.4691 0.649857 25.2138 0.595099C24.808 0.511758 24.3964 0.459356 23.9824 0.438362C23.8231 0.426986 23.6636 0.420836 23.5039 0.419922C23.3433 0.420473 23.1828 0.426624 23.0226 0.438362C22.6087 0.459356 22.197 0.511758 21.7912 0.595099C21.5359 0.649987 21.2839 0.718938 21.0364 0.801624C20.7442 0.894549 20.4598 1.00953 20.1857 1.14552C19.7007 1.38893 19.2711 1.6895 18.896 2.04077C17.8996 2.98212 17.3074 4.29226 17.2078 5.85872C17.1965 6.01545 17.189 6.17219 17.189 6.33262C17.1915 6.79464 17.2087 7.25648 17.2407 7.71744L17.2595 7.96453C17.2736 8.12957 17.2933 8.2946 17.3121 8.45318C17.3234 8.53248 17.3338 8.61084 17.3479 8.68645C17.3732 8.83857 17.4005 8.98148 17.4334 9.10872C17.4503 9.17325 17.4663 9.23318 17.486 9.28758C17.4205 9.26537 17.3532 9.24841 17.2849 9.23687L17.2322 9.22857C17.1851 9.22031 17.1373 9.21569 17.0894 9.21474C17.0781 9.21474 17.0677 9.21198 17.0565 9.21198C16.9377 9.21141 16.8212 9.24334 16.7199 9.30418C16.7143 9.30694 16.7115 9.31248 16.7058 9.31524C16.6698 9.34165 16.6376 9.37266 16.61 9.40744C16.6043 9.41297 16.5987 9.41758 16.593 9.42588C16.5651 9.46647 16.5421 9.51009 16.5244 9.55588C16.5216 9.56694 16.516 9.57708 16.5131 9.58538C16.4951 9.63832 16.4831 9.69305 16.4774 9.74857V9.76148C16.4711 9.83449 16.4711 9.9079 16.4774 9.98091C16.4831 10.0482 16.4943 10.1164 16.5075 10.1893C16.5103 10.2022 16.5131 10.2188 16.5188 10.2317C16.5357 10.3082 16.5564 10.3866 16.5846 10.4677C16.6026 10.5211 16.6183 10.5753 16.6316 10.63C16.6316 10.6355 16.6344 10.6383 16.6344 10.6411C16.6485 10.6982 16.6626 10.7572 16.6758 10.8199C16.6786 10.8273 16.6786 10.8365 16.6814 10.8411C16.6994 10.9175 16.7151 10.9944 16.7284 11.0716C16.7416 11.1389 16.7557 11.2062 16.766 11.2772C16.7801 11.3528 16.797 11.4284 16.8102 11.504L16.8158 11.5345C16.8299 11.6073 16.8468 11.6829 16.8628 11.7585C16.8656 11.7668 16.8656 11.7751 16.8685 11.7862C16.8854 11.8618 16.9042 11.9364 16.9239 12.013C16.9267 12.0185 16.9267 12.0259 16.9296 12.0314C16.9682 12.1894 17.0169 12.3449 17.0753 12.497V12.4998C17.1035 12.5708 17.1326 12.6408 17.1636 12.7063L17.1711 12.722C17.2022 12.7847 17.2351 12.8464 17.2708 12.9036L17.2839 12.9248C17.3206 12.9792 17.3554 13.0308 17.3967 13.0788L17.4137 13.1009C17.455 13.147 17.4964 13.1903 17.5434 13.2272L17.565 13.2438C17.611 13.2804 17.6608 13.3123 17.7135 13.3388C17.722 13.3443 17.7304 13.3462 17.738 13.3489C17.7934 13.3766 17.8479 13.395 17.9119 13.4116C17.9203 13.4144 17.9288 13.4144 17.9363 13.4172C18.0024 13.4314 18.0698 13.4385 18.1375 13.4384H18.1563C18.2315 13.4384 18.3085 13.431 18.3913 13.4144C18.3913 13.8016 18.3913 14.5291 18.4928 15.3008C18.5144 15.4686 18.5482 15.6521 18.5887 15.8392C18.8011 16.7704 19.2373 17.6712 19.696 18.1313C20.9932 19.4322 22.2603 20.404 23.5049 20.404C24.7494 20.404 26.0165 19.4331 27.3137 18.1313C27.7743 17.6684 28.2124 16.7667 28.4211 15.8392C28.4587 15.6521 28.4963 15.4686 28.5169 15.3008C28.6194 14.5291 28.6194 13.8044 28.6194 13.4144C28.7021 13.431 28.7792 13.4384 28.8535 13.4384H28.8723C28.9399 13.4385 29.0073 13.4314 29.0734 13.4172L29.0988 13.4116C29.1588 13.3976 29.2169 13.3766 29.2718 13.3489L29.2962 13.3388C29.3488 13.3111 29.3987 13.2789 29.4457 13.2438L29.4673 13.2272C29.5143 13.1903 29.5556 13.1461 29.5961 13.1009C29.6017 13.0917 29.6073 13.0871 29.613 13.0788C29.6543 13.0299 29.6901 12.9792 29.7258 12.9248L29.7399 12.9036C29.7766 12.8451 29.8096 12.7845 29.8386 12.722L29.847 12.7063C29.8771 12.6381 29.9072 12.5708 29.9354 12.4998V12.4979C29.9627 12.4242 29.9871 12.3467 30.0125 12.2702C30.0125 12.2684 30.0125 12.2684 30.0153 12.2656L30.0811 12.0323C30.0839 12.0268 30.0839 12.0185 30.0867 12.0139C30.1055 11.9374 30.1243 11.8618 30.1413 11.7862C30.1441 11.7779 30.1441 11.7696 30.1469 11.7585C30.1638 11.6829 30.1807 11.6101 30.1939 11.5345L30.1995 11.505C30.2165 11.4294 30.2296 11.351 30.2437 11.2772C30.2578 11.2072 30.2719 11.1371 30.2823 11.0716L30.2907 11.0347C30.3039 10.9693 30.3152 10.9038 30.3283 10.8411C30.3311 10.8338 30.3311 10.8255 30.334 10.8199L30.3753 10.6411C30.3753 10.6355 30.3781 10.6337 30.3781 10.6309C30.3951 10.571 30.4092 10.5175 30.4251 10.4686C30.4533 10.3875 30.475 10.3082 30.4909 10.2326L30.5022 10.1893C30.5181 10.1082 30.5291 10.0263 30.5351 9.94404C30.5332 9.88134 30.5332 9.81865 30.5276 9.7624V9.76148Z" fill="#3D4556"/></g><defs><clipPath id="clip0_8583_99067"><rect width="47" height="130" fill="white" transform="translate(0 0.419922)"/></clipPath></defs></svg>